<svg xmlns="http://www.w3.org/2000/svg" viewBox="0 0 32 32" shape-rendering="crispEdges" role="img" aria-labelledby="title"><title id="title">Robot Galaxy 像素机器人</title><g fill="#7898c8"><path d="M5 4h22v2h2v11h-2v2H5v-2H3V6h2z"/><path d="M11 21h10v8H11z"/></g><g fill="#243b61"><path d="M6 7h9v9H6zM17 7h9v9h-9zM14 19h4v2h-4zM6 23h5v7H6zM21 23h5v7h-5z"/></g><g fill="#59e4f2"><path d="M8 9h5v5H8zM19 9h5v5h-5z"/></g><g fill="#0b1221"><path d="M10 11h2v2h-2zM20 11h2v2h-2z"/></g><g fill="#f8bd4d"><path d="M15 23h2v2h-2zM1 9h2v4H1zM29 9h2v4h-2z"/></g><g fill="#7898c8"><path d="M7 25h3v1H7zM7 28h3v1H7zM22 25h3v1h-3zM22 28h3v1h-3z"/></g></svg>
